<svg xmlns="http://www.w3.org/2000/svg" viewBox="0 0 422 422"><g fill="none" fill-rule="evenodd"><rect width="422" height="422" fill="url(#linearGradient-1)" rx="99"/><path fill="#F9F9F9" fill-opacity=".903" d="M302 21c54.676 0 99 44.324 99 99v181c0 54.676-44.324 99-99 99H121c-54.676 0-99-44.324-99-99V120c0-54.676 44.324-99 99-99h181zm2 209l-92.858 53.245-.142.168v-.168L119 230l92 127v-.403l.142.403L304 230zM212.01 64L211 67.347V64l-91.933 148.831-.067.03.036.021-.036.058L211 266v-.983l1 .974V266l.006-.003.003.003L304 212.94l-.036-.058.036-.02-.067-.031L212.009 64z"/></g></svg>